solid fins
  facet normal 0 0 1
    outer loop
      vertex 1.625 0.0 0.55
      vertex 2.375 0.0 0.55
      vertex 2.375 0.4 0.55
    endloop
  endfacet
  facet normal 0 0 1
    outer loop
      vertex 1.625 0.0 0.55
      vertex 2.375 0.4 0.55
      vertex 1.625 0.4 0.55
    endloop
  endfacet
  facet normal 0 0 -1
    outer loop
      vertex 1.625 0.0 0.45
      vertex 2.375 0.4 0.45
      vertex 2.375 0.0 0.45
    endloop
  endfacet
  facet normal 0 0 -1
    outer loop
      vertex 1.625 0.0 0.45
      vertex 1.625 0.4 0.45
      vertex 2.375 0.4 0.45
    endloop
  endfacet
  facet normal 0 -1 0
    outer loop
      vertex 1.625 0.0 0.45
      vertex 2.375 0.0 0.45
      vertex 2.375 0.0 0.55
    endloop
  endfacet
  facet normal 0 -1 0
    outer loop
      vertex 1.625 0.0 0.45
      vertex 2.375 0.0 0.55
      vertex 1.625 0.0 0.55
    endloop
  endfacet
  facet normal 0 1 0
    outer loop
      vertex 1.625 0.4 0.45
      vertex 1.625 0.4 0.55
      vertex 2.375 0.4 0.55
    endloop
  endfacet
  facet normal 0 1 0
    outer loop
      vertex 1.625 0.4 0.45
      vertex 2.375 0.4 0.55
      vertex 2.375 0.4 0.45
    endloop
  endfacet
  facet normal -1 0 0
    outer loop
      vertex 1.625 0.0 0.45
      vertex 1.625 0.0 0.55
      vertex 1.625 0.4 0.55
    endloop
  endfacet
  facet normal -1 0 0
    outer loop
      vertex 1.625 0.0 0.45
      vertex 1.625 0.4 0.55
      vertex 1.625 0.4 0.45
    endloop
  endfacet
  facet normal 1 0 0
    outer loop
      vertex 2.375 0.0 0.45
      vertex 2.375 0.4 0.45
      vertex 2.375 0.4 0.55
    endloop
  endfacet
  facet normal 1 0 0
    outer loop
      vertex 2.375 0.0 0.45
      vertex 2.375 0.4 0.55
      vertex 2.375 0.0 0.55
    endloop
  endfacet
  facet normal 0 0 1
    outer loop
      vertex 1.0 0.0 0.25
      vertex 2.0 0.0 0.25
      vertex 2.0 0.3 0.25
    endloop
  endfacet
  facet normal 0 0 1
    outer loop
      vertex 1.0 0.0 0.25
      vertex 2.0 0.3 0.25
      vertex 1.0 0.3 0.25
    endloop
  endfacet
  facet normal 0 0 -1
    outer loop
      vertex 1.0 0.0 0.15
      vertex 2.0 0.3 0.15
      vertex 2.0 0.0 0.15
    endloop
  endfacet
  facet normal 0 0 -1
    outer loop
      vertex 1.0 0.0 0.15
      vertex 1.0 0.3 0.15
      vertex 2.0 0.3 0.15
    endloop
  endfacet
  facet normal 0 -1 0
    outer loop
      vertex 1.0 0.0 0.15
      vertex 2.0 0.0 0.15
      vertex 2.0 0.0 0.25
    endloop
  endfacet
  facet normal 0 -1 0
    outer loop
      vertex 1.0 0.0 0.15
      vertex 2.0 0.0 0.25
      vertex 1.0 0.0 0.25
    endloop
  endfacet
  facet normal 0 1 0
    outer loop
      vertex 1.0 0.3 0.15
      vertex 1.0 0.3 0.25
      vertex 2.0 0.3 0.25
    endloop
  endfacet
  facet normal 0 1 0
    outer loop
      vertex 1.0 0.3 0.15
      vertex 2.0 0.3 0.25
      vertex 2.0 0.3 0.15
    endloop
  endfacet
  facet normal -1 0 0
    outer loop
      vertex 1.0 0.0 0.15
      vertex 1.0 0.0 0.25
      vertex 1.0 0.3 0.25
    endloop
  endfacet
  facet normal -1 0 0
    outer loop
      vertex 1.0 0.0 0.15
      vertex 1.0 0.3 0.25
      vertex 1.0 0.3 0.15
    endloop
  endfacet
  facet normal 1 0 0
    outer loop
      vertex 2.0 0.0 0.15
      vertex 2.0 0.3 0.15
      vertex 2.0 0.3 0.25
    endloop
  endfacet
  facet normal 1 0 0
    outer loop
      vertex 2.0 0.0 0.15
      vertex 2.0 0.3 0.25
      vertex 2.0 0.0 0.25
    endloop
  endfacet
  facet normal 0 0 1
    outer loop
      vertex 1.0 0.0 0.85
      vertex 2.0 0.0 0.85
      vertex 2.0 0.3 0.85
    endloop
  endfacet
  facet normal 0 0 1
    outer loop
      vertex 1.0 0.0 0.85
      vertex 2.0 0.3 0.85
      vertex 1.0 0.3 0.85
    endloop
  endfacet
  facet normal 0 0 -1
    outer loop
      vertex 1.0 0.0 0.75
      vertex 2.0 0.3 0.75
      vertex 2.0 0.0 0.75
    endloop
  endfacet
  facet normal 0 0 -1
    outer loop
      vertex 1.0 0.0 0.75
      vertex 1.0 0.3 0.75
      vertex 2.0 0.3 0.75
    endloop
  endfacet
  facet normal 0 -1 0
    outer loop
      vertex 1.0 0.0 0.75
      vertex 2.0 0.0 0.75
      vertex 2.0 0.0 0.85
    endloop
  endfacet
  facet normal 0 -1 0
    outer loop
      vertex 1.0 0.0 0.75
      vertex 2.0 0.0 0.85
      vertex 1.0 0.0 0.85
    endloop
  endfacet
  facet normal 0 1 0
    outer loop
      vertex 1.0 0.3 0.75
      vertex 1.0 0.3 0.85
      vertex 2.0 0.3 0.85
    endloop
  endfacet
  facet normal 0 1 0
    outer loop
      vertex 1.0 0.3 0.75
      vertex 2.0 0.3 0.85
      vertex 2.0 0.3 0.75
    endloop
  endfacet
  facet normal -1 0 0
    outer loop
      vertex 1.0 0.0 0.75
      vertex 1.0 0.0 0.85
      vertex 1.0 0.3 0.85
    endloop
  endfacet
  facet normal -1 0 0
    outer loop
      vertex 1.0 0.0 0.75
      vertex 1.0 0.3 0.85
      vertex 1.0 0.3 0.75
    endloop
  endfacet
  facet normal 1 0 0
    outer loop
      vertex 2.0 0.0 0.75
      vertex 2.0 0.3 0.75
      vertex 2.0 0.3 0.85
    endloop
  endfacet
  facet normal 1 0 0
    outer loop
      vertex 2.0 0.0 0.75
      vertex 2.0 0.3 0.85
      vertex 2.0 0.0 0.85
    endloop
  endfacet
endsolid fins
